<svg width="86" height="20" viewBox="0 0 86 20" fill="none" xmlns="http://www.w3.org/2000/svg">
<g clip-path="url(#clip0_304_596)">
<path fill-rule="evenodd" clip-rule="evenodd" d="M69.8239 6.414C70.1517 6.973 70.259 7.609 70.2944 8.324L70.3409 9.277V15.941L70.3885 16.895C70.4836 18.453 71.6461 19.605 73.2346 19.703L74.1947 19.75V9.277L74.2423 8.324C74.2817 7.617 74.388 6.969 74.7208 6.406C75.06 5.82853 75.547 5.34943 76.1328 5.01678C76.7185 4.68414 77.3825 4.50967 78.0581 4.51088C78.7337 4.5121 79.3971 4.68896 79.9816 5.02371C80.5662 5.35846 81.0513 5.83932 81.3884 6.418C81.7162 6.977 81.8184 7.625 81.8578 8.324L81.9054 9.274V15.941L81.9529 16.895C82.0521 18.461 83.2055 19.613 84.799 19.703L85.7592 19.75V8.324C85.7592 6.30357 84.9474 4.36585 83.5022 2.93691C82.057 1.50796 80.0968 0.704794 78.0526 0.703998C76.9585 0.702858 75.8767 0.932503 74.8796 1.37759C73.8825 1.82268 72.9929 2.47296 72.2704 3.285C71.5475 2.47329 70.6579 1.82316 69.6608 1.37794C68.6638 0.932717 67.5822 0.702626 66.4881 0.702998C64.8875 0.702998 63.4022 1.183 62.1719 2.012C61.4212 1.184 59.7417 0.702998 58.7775 0.702998V19.75L59.7417 19.703C61.3544 19.598 62.52 18.477 62.5827 16.895L62.6343 15.941V9.277L62.6819 8.324C62.7223 7.605 62.8235 6.973 63.1523 6.41C63.4918 5.83289 63.9785 5.3539 64.5639 5.02085C65.1492 4.6878 65.8127 4.51234 66.4881 4.512C67.164 4.51214 67.8281 4.68795 68.4135 5.02178C68.999 5.35561 69.4854 5.83574 69.8239 6.414ZM3.85381 19.704L4.81802 19.75H19.2711L19.2235 18.8C19.093 17.234 17.971 16.09 16.3815 15.988L15.4173 15.941H6.74645L18.3069 4.511L18.2593 3.562C18.1844 1.98 17.0148 0.836998 15.4173 0.749998L14.4531 0.706998L0 0.702998L0.0475529 1.656C0.174024 3.207 1.31226 4.375 2.88859 4.465L3.85381 4.512H12.5246L0.964212 15.942L1.01176 16.895C1.10687 18.465 2.2532 19.602 3.85381 19.703V19.704ZM54.9945 3.491C55.8894 4.37532 56.5993 5.42522 57.0836 6.58073C57.568 7.73625 57.8172 8.97475 57.8172 10.2255C57.8172 11.4762 57.568 12.7147 57.0836 13.8703C56.5993 15.0258 55.8894 16.0757 54.9945 16.96C53.1865 18.7456 50.7351 19.7485 48.1792 19.7485C45.6233 19.7485 43.172 18.7456 41.364 16.96C37.6012 13.241 37.6012 7.21 41.364 3.491C42.2581 2.60697 43.3196 1.90567 44.4879 1.42713C45.6562 0.948595 46.9085 0.702193 48.1732 0.701998C49.4399 0.701129 50.6944 0.947096 51.8648 1.42583C53.0353 1.90457 54.0988 2.60668 54.9945 3.492V3.491ZM52.2678 6.188C53.3516 7.26002 53.9604 8.71351 53.9604 10.229C53.9604 11.7445 53.3516 13.198 52.2678 14.27C51.1831 15.3412 49.7125 15.9429 48.1792 15.9429C46.6459 15.9429 45.1753 15.3412 44.0907 14.27C43.0069 13.198 42.3981 11.7445 42.3981 10.229C42.3981 8.71351 43.0069 7.26002 44.0907 6.188C45.1753 5.11679 46.6459 4.51506 48.1792 4.51506C49.7125 4.51506 51.1831 5.11679 52.2678 6.188ZM27.95 0.701998C29.2147 0.702324 30.467 0.948883 31.6354 1.4276C32.8037 1.90631 33.8652 2.60779 34.7592 3.492C38.5229 7.21 38.5229 13.242 34.7592 16.96C32.9512 18.7456 30.4998 19.7485 27.9439 19.7485C25.388 19.7485 22.9367 18.7456 21.1287 16.96C17.3659 13.241 17.3659 7.21 21.1287 3.491C22.0228 2.60697 23.0843 1.90567 24.2526 1.42713C25.4209 0.948595 26.6732 0.702193 27.9379 0.701998H27.95ZM32.0325 6.186C33.1166 7.25806 33.7256 8.71176 33.7256 10.2275C33.7256 11.7432 33.1166 13.1969 32.0325 14.269C30.9478 15.3402 29.4773 15.9419 27.9439 15.9419C26.4106 15.9419 24.94 15.3402 23.8554 14.269C22.7716 13.197 22.1628 11.7435 22.1628 10.228C22.1628 8.71251 22.7716 7.25902 23.8554 6.187C24.94 5.11579 26.4106 4.51406 27.9439 4.51406C29.4773 4.51406 30.9478 5.11579 32.0325 6.187V6.186Z" fill="#BCC3DC"/>
</g>
<defs>
<clipPath id="clip0_304_596">
<rect width="86" height="20" fill="white"/>
</clipPath>
</defs>
</svg>
